HIERARCHY
ROOT Pelvis
{
	OFFSET 0.000000 0.000000 0.000000
	CHANNELS 6 Xposition Yposition Zposition Zrotation Yrotation Xrotation 
	JOINT Left_hip
	{
		OFFSET 0.068973 -0.091024 -0.007589
		CHANNELS 3 Zrotation Yrotation Xrotation
		JOINT Left_knee
		{
			OFFSET 0.036482 -0.391037 -0.003979
			CHANNELS 3 Zrotation Yrotation Xrotation
			JOINT Left_ankle
			{
				OFFSET -0.012239 -0.415469 -0.043440
				CHANNELS 3 Zrotation Yrotation Xrotation
				JOINT Left_foot
				{
					OFFSET 0.023806 -0.058558 0.118702
					CHANNELS 3 Zrotation Yrotation Xrotation
					End Site
					{
						OFFSET 0.000000 0.000000 0.000000
					}
				}
			}
		}
	}
	JOINT Right_hip
	{
		OFFSET -0.066552 -0.090468 -0.003847
		CHANNELS 3 Zrotation Yrotation Xrotation
		JOINT Right_knee
		{
			OFFSET -0.042435 -0.398340 -0.006400
			CHANNELS 3 Zrotation Yrotation Xrotation
			JOINT Right_ankle
			{
				OFFSET 0.014931 -0.415421 -0.041327
				CHANNELS 3 Zrotation Yrotation Xrotation
				JOINT Right_foot
				{
					OFFSET -0.021472 -0.049410 0.121889
					CHANNELS 3 Zrotation Yrotation Xrotation
					End Site
					{
						OFFSET 0.000000 0.000000 0.000000
					}
				}
			}
		}
	}
	JOINT Spine1
	{
		OFFSET -0.002904 0.105700 -0.022855
		CHANNELS 3 Zrotation Yrotation Xrotation
		JOINT Spine2
		{
			OFFSET 0.004179 0.132554 -0.002501
			CHANNELS 3 Zrotation Yrotation Xrotation
			JOINT Spine3
			{
				OFFSET 0.001987 0.049603 0.025988
				CHANNELS 3 Zrotation Yrotation Xrotation
				JOINT Neck
				{
					OFFSET -0.003935 0.211336 -0.045638
					CHANNELS 3 Zrotation Yrotation Xrotation
					JOINT Head
					{
						OFFSET 0.003906 0.065991 0.051018
						CHANNELS 3 Zrotation Yrotation Xrotation
						End Site
						{
							OFFSET 0.000000 0.000000 0.000000
						}
					}
				}
				JOINT Left_collar
				{
					OFFSET 0.072882 0.117751 -0.036270
					CHANNELS 3 Zrotation Yrotation Xrotation
					JOINT Left_shoulder
					{
						OFFSET 0.082118 0.032630 -0.005771
						CHANNELS 3 Zrotation Yrotation Xrotation
						JOINT Left_elbow
						{
							OFFSET 0.263305 -0.015144 -0.028095
							CHANNELS 3 Zrotation Yrotation Xrotation
							JOINT Left_wrist
							{
								OFFSET 0.250741 0.010115 -0.000759
								CHANNELS 3 Zrotation Yrotation Xrotation
								JOINT Left_palm
								{
									OFFSET 0.080683 -0.009989 -0.013613
									CHANNELS 3 Zrotation Yrotation Xrotation
									End Site
									{
										OFFSET 0.000000 0.000000 0.000000
									}
								}
							}
						}
					}
				}
				JOINT Right_collar
				{
					OFFSET -0.074811 0.116132 -0.040385
					CHANNELS 3 Zrotation Yrotation Xrotation
					JOINT Right_shoulder
					{
						OFFSET -0.085089 0.032943 -0.007484
						CHANNELS 3 Zrotation Yrotation Xrotation
						JOINT Right_elbow
						{
							OFFSET -0.254763 -0.014219 -0.020321
							CHANNELS 3 Zrotation Yrotation Xrotation
							JOINT Right_wrist
							{
								OFFSET -0.256597 0.009233 -0.005063
								CHANNELS 3 Zrotation Yrotation Xrotation
								JOINT Right_palm
								{
									OFFSET -0.080528 -0.007219 -0.010379
									CHANNELS 3 Zrotation Yrotation Xrotation
									End Site
									{
										OFFSET 0.000000 0.000000 0.000000
									}
								}
							}
						}
					}
				}
			}
		}
	}
}
MOTION
Frames: 9
Frame Time: 0.100000
0.195281 -0.003229 0.072368 -99.971591 -69.733103 -85.160595 -1.987362 3.464350 7.417060 -7.360643 -21.431929 15.791125 -9.555491 0.945659 2.139764 8.048020 7.360391 -11.648591 -16.915137 -5.174027 -3.181518 1.099998 0.638024 17.010441 8.389732 -12.188232 -1.268294 -9.170611 0.172564 -3.025272 16.263764 -4.998078 24.721034 7.430400 -1.616387 12.563194 6.890927 0.649258 0.821231 -6.633941 10.719458 3.843971 -11.912230 16.389719 -7.836601 -22.542300 -6.347429 7.862786 -50.185204 2.639283 10.689720 -2.795797 -38.061454 26.574984 -1.920018 -8.053512 1.407025 -10.787650 -4.093449 -16.848302 19.590365 13.554808 7.804146 24.756865 8.602513 -5.360459 -15.572856 20.025048 -27.728479 -7.621117 4.527624 3.269142 11.413342 6.068713 -11.204314 
0.204103 -0.006846 0.044191 -119.731116 -62.785893 -66.329114 -2.176098 4.401880 2.656617 -9.084720 -15.018144 19.631653 -12.462765 -0.405228 7.979689 7.493526 8.156232 -15.729661 -20.733950 -9.780154 0.755664 0.955597 -4.463876 16.452076 9.321037 -13.187086 -0.677101 -11.501181 0.652488 -4.828411 17.952740 -3.813383 24.642773 6.300975 -0.822944 10.838326 6.416394 1.210551 0.515930 -10.160042 13.045029 1.941809 -13.738780 21.434226 -7.732477 -22.201221 -4.800482 7.029318 -51.398718 0.794075 10.639838 -3.458019 -45.345030 28.466493 -2.114765 -9.840139 -1.895225 -10.663324 -3.762296 -13.722030 18.885895 10.225386 8.227483 25.632806 5.023175 -5.675183 -18.469653 22.930431 -30.698226 -6.947013 5.459028 3.397709 10.808759 5.825639 -9.804019 
0.210912 -0.011313 0.024322 -133.576055 -54.114663 -53.963039 -4.513719 4.467606 0.091319 -5.852186 -7.148527 17.523822 -10.451828 3.220035 12.339783 7.141077 8.139015 -17.507442 -22.404380 -11.494173 6.203692 -0.478695 -8.806855 13.745512 8.392480 -15.503354 1.008500 -10.996262 -1.072117 -5.608390 19.363232 -2.583780 24.316042 5.779469 -0.094852 8.891899 6.278896 1.791602 0.349334 -12.262630 8.864231 1.103762 -12.741831 20.864346 -8.874532 -21.617217 -1.959627 6.529912 -53.768535 0.518399 10.939930 -5.400209 -52.404320 32.152849 -3.041998 -11.475693 -4.613889 -10.298027 -3.363998 -11.762083 17.607328 6.372799 8.502667 28.277726 -0.487638 -5.671629 -22.942317 25.241881 -34.577124 -6.958529 6.056621 2.286685 9.943175 5.599025 -9.694035 
0.209609 -0.012161 0.015335 -137.257137 -48.901105 -49.033454 -7.533538 6.034725 -0.543665 -2.967053 -3.048046 6.732896 -11.188792 6.155585 20.223807 6.580935 3.362503 -14.081756 -22.750164 -12.656201 7.151216 -3.067631 -12.400583 11.756119 4.630848 -10.397886 2.709941 -2.220281 -14.015787 -2.862566 20.722421 -0.819365 24.016028 5.013690 0.672438 9.484746 6.383106 3.327529 -2.773246 -16.466981 1.478795 7.638170 -11.809730 19.780803 -17.398047 -19.555623 -1.884010 4.318753 -58.888261 5.693605 13.069217 -3.865041 -50.191550 33.495690 -1.186434 -10.995391 2.030940 -10.811527 -1.476324 -15.870747 13.334090 6.289247 8.696285 30.655560 -7.372957 -8.443262 -25.993987 26.490394 -39.557317 -5.920389 4.606900 -3.196165 5.810791 3.969280 -10.515437 
0.198091 -0.011228 0.012439 -136.198910 -49.624905 -47.123635 -8.245204 5.616384 -2.657742 -2.853744 -4.769639 -0.226155 -12.401372 6.324586 19.329032 8.562028 3.904508 -12.776621 -21.983936 -11.896500 2.622581 -2.903507 -11.865614 12.550248 5.444411 -11.347085 2.161916 -3.472864 -14.097944 -1.879411 21.200802 -1.417352 26.476816 4.479215 1.492874 9.626468 6.594909 3.532821 -2.781706 -14.861786 -5.012498 6.858066 -9.540030 14.649210 -20.114936 -20.870876 -1.299280 4.339182 -60.055047 9.825808 13.608446 -3.825021 -46.181652 35.479775 -1.895979 -9.518286 9.006613 -10.772376 -1.855261 -21.054903 10.782901 9.093781 7.505618 23.105564 -6.238293 -11.783972 -23.719474 24.767318 -41.053100 -7.417860 4.242894 -1.508198 5.602707 3.453863 -12.081212 
0.189329 -0.004213 0.017916 -135.441249 -54.254679 -46.665978 -5.580270 5.926019 -3.442732 -2.877199 -5.546034 1.786483 -15.162241 6.705263 17.847552 10.721467 2.846402 -10.847443 -18.703498 -9.388355 -1.060695 -2.627237 -11.175236 14.100147 2.085372 -10.214354 0.031265 0.207101 -15.741433 1.828701 19.943188 -2.921919 28.187215 5.254253 0.588860 11.664949 6.768591 3.131543 -3.512279 -8.853503 -18.598948 10.762743 -0.016713 1.983510 -17.380689 -22.208977 -3.392404 7.049596 -58.989721 12.768742 15.954878 -6.315529 -44.112139 37.168422 -14.114342 -8.963414 6.710551 -7.939301 0.221105 -23.046453 8.936597 15.714480 6.252294 15.716286 -1.135659 -16.216391 -18.720065 19.177110 -41.115748 2.020181 2.469646 -6.412490 1.150323 1.612113 -9.762076 
0.193556 0.003494 0.027627 -136.053719 -62.068323 -46.438623 -0.079694 8.489850 2.062509 -1.985648 -7.085903 -1.093541 -15.881992 7.088575 10.150627 14.449095 3.007277 -7.996516 -13.706105 -7.530229 -2.553682 -1.007423 -9.702632 15.470301 1.955319 -9.450142 -2.445165 -0.378544 -12.363553 2.963350 16.334754 -3.659414 28.011205 6.303527 -0.802390 14.557205 6.688494 2.451247 -2.930843 -1.968891 -29.592079 16.346450 9.947277 -13.409772 -12.122459 -22.211567 -4.917173 9.417814 -59.229948 11.769007 16.105349 -7.929262 -43.375973 36.015804 -18.617271 -7.388845 2.298505 -4.665031 0.292566 -21.282423 9.992204 19.470154 6.264772 19.558080 3.791883 -13.398826 -13.886210 23.206248 -26.921967 3.944631 0.892503 -1.924035 0.303059 2.809585 -8.634011 
0.195560 0.007008 0.038618 -133.535229 -68.247413 -48.983439 2.218424 7.753559 2.660853 -1.287580 -4.690284 0.554976 -12.052095 9.842727 4.066878 11.670194 1.761331 -3.769472 -10.492445 -5.792274 -4.312507 -0.585602 -8.399057 17.444347 0.978070 -8.136811 -3.335731 2.685789 -11.647490 4.263251 12.673792 -2.924685 29.060850 7.021546 -2.709913 15.786006 6.640180 1.664392 -3.002643 -0.658387 -29.802263 17.523644 12.305105 -17.596152 -9.013882 -25.254703 -8.425587 10.347912 -53.997197 8.780915 15.200487 -5.556228 -44.987176 32.279931 -12.871362 -5.610851 10.710388 -4.752988 -1.702033 -19.842567 16.755802 20.820522 8.412621 22.906773 3.775785 -6.849398 -12.852811 32.147994 -7.788474 2.117920 0.199766 18.703445 0.485359 5.614605 -9.196967 
0.192308 0.005443 0.049139 -130.458306 -71.003148 -53.061884 3.153240 8.116502 2.064389 -1.624520 -3.854552 5.257082 -10.209756 9.890178 1.575699 9.253144 2.832551 -2.886566 -9.822390 -5.471382 -3.632145 -0.319677 -6.839171 17.256060 0.608752 -7.568578 -2.209511 4.752344 -10.490507 3.405990 11.718107 -2.821019 30.383850 7.265199 -3.008508 16.129248 6.827629 1.410197 -2.600407 -1.518558 -28.279971 16.827319 12.145660 -17.251340 -8.150317 -24.621214 -10.217574 8.978663 -50.407865 2.351115 11.602604 7.326651 -48.172074 17.279557 -2.791574 -5.073409 13.188437 -4.734892 -1.958149 -16.399322 19.277875 20.541380 9.198897 26.811575 1.830927 -3.872041 -11.580109 33.608047 -3.858239 1.432040 0.109560 19.630709 -0.151521 5.880364 -7.673179 
